<?xml version="1.0" encoding="UTF-8" standalone="no"?>
<svg
   id="Layer_1"
   data-name="Layer 1"
   viewBox="0 0 2288.8951 553.33502"
   version="1.1"
   sodipodi:docname="raindrop_dejavu2.svg"
   inkscape:version="1.2.2 (b0a8486541, 2022-12-01)"
   width="2288.895"
   height="553.33502"
   xmlns:inkscape="http://www.inkscape.org/namespaces/inkscape"
   xmlns:sodipodi="http://sodipodi.sourceforge.net/DTD/sodipodi-0.dtd"
   xmlns="http://www.w3.org/2000/svg"
   xmlns:svg="http://www.w3.org/2000/svg">
  <sodipodi:namedview
     id="namedview101"
     pagecolor="#ffffff"
     bordercolor="#000000"
     borderopacity="0.25"
     inkscape:showpageshadow="2"
     inkscape:pageopacity="0.0"
     inkscape:pagecheckerboard="0"
     inkscape:deskcolor="#d1d1d1"
     showgrid="false"
     inkscape:zoom="0.25420793"
     inkscape:cx="1248.9776"
     inkscape:cy="332.40505"
     inkscape:window-width="1920"
     inkscape:window-height="1011"
     inkscape:window-x="0"
     inkscape:window-y="32"
     inkscape:window-maximized="1"
     inkscape:current-layer="Layer_1" />
  <defs
     id="defs4">
    <style
       id="style2">
      .cls-1 {
        fill: #f1f1f1;
      }

      .cls-2 {
        fill: #eaeaea;
      }

      .cls-3 {
        fill: #efefef;
      }

      .cls-4 {
        fill: #e4e4e4;
      }

      .cls-5 {
        fill: #f4f4f4;
      }

      .cls-6 {
        fill: #46166b;
      }

      .cls-7 {
        fill: #fdfdfc;
      }

      .cls-8 {
        fill: #fdfcfc;
      }

      .cls-9 {
        fill: #f7f7f7;
      }

      .cls-10 {
        fill: #f2f2f2;
      }

      .cls-11 {
        fill: #f5f5f5;
      }

      .cls-12 {
        fill: #ebb43e;
      }

      .cls-13 {
        fill: #ebb238;
      }
    </style>
  </defs>
  <path
     class="cls-6"
     d="m 328.50272,451.37626 c -45.34,72.34 -127.72,90.38 -207.42,70.07 24.98,-55.97 49.96,-111.93 74.94,-167.9 h -0.01 c -19.98,-0.53 -39.96,-1.07 -59.94,-1.6 l 57.92,-206.85 c 44.19,-20.58 90.67,-48.280002 121.06,-87.170002 7.53,-9.62 13.23,-20.38 20.02,-30.469999 16.89,41.469999 23.85,87.080001 29,131.510001 10.68,91.97 15.48,210.93 -35.57,292.41 z"
     id="path6"
     style="stroke:#46166b;stroke-opacity:1" />
  <path
     class="cls-6"
     d="m 123.08272,394.45626 -20.01,113 c -43.669993,-15.55 -83.709993,-53.12 -97.2599924,-98.24 -9.77,-32.52 -8.08,-69.46 1.77,-101.76 16.1399994,-52.96 59.4199994,-96.98 108.9899924,-120.01 l -51.989993,207.01 z"
     id="path8" />
  <path
     class="cls-8"
     d="m 299.01942,217.6077 h -65.7 v -60.71 c 17.43,-16.46 48.17,-16.16 65.7,0 z m -1.61,-1.62 v -58.29 c -13.7,-12.16 -34.99,-14.62 -51.61,-7.18 -0.56,0.25 -3.38,1.56 -3.59,1.79 -0.43,0.47 -0.23,0.71 -0.15,1.22 0.64,4.36 5.27,14.01 4.98,17.59 -0.16,1.94 -1.41,3.85 -1.33,5.95 0.02,0.54 0.72,4.99 0.86,5.21 0.14,0.21 1.43,0.41 1.7,0.86 0.46,0.73 -0.32,1.62 -0.12,2.25 0.14,0.43 0.91,0.49 1.03,0.89 0.17,0.55 -0.53,1.08 -0.51,1.58 0.01,0.37 0.46,0.69 0.53,1.1 0.11,0.68 -0.24,1.23 -0.27,1.86 -0.06,1.22 0.54,1.04 -0.42,2.54 -1.48,2.31 -3.1,2.66 -4.94,4.21 -2.25,1.9 -4.29,8.82 -5.63,11.87 -0.95,2.17 -2.16,4.24 -3.01,6.41 0.02,0.21 2.76,0.31 3.1,-0.13 l 5.38,-12.38 2.02,12.65 h 2.96 c 0,0 -2.18,-15.75 -2.18,-15.75 0,-2.53 2.27,-3.49 2.91,-0.47 1.1,5.15 1.34,10.98 2.23,16.21 h 2.96 c 0,0 -2.77,-21.19 -2.77,-21.19 0.07,-0.17 0.38,-0.61 0.48,-0.61 0.36,0 3.07,4.4 3.63,3.76 -0.62,-2.3 -2.26,-3.7 -1.36,-6.34 1.73,-5.07 13.55,-5.1 16.99,-8.32 1.4,-1.31 2.17,-4.71 2.4,-4.87 0.92,-0.65 4.76,0.41 5.94,0.69 -1.91,2.47 -0.66,4.64 -0.53,7.14 0.13,2.5 -1.55,0.82 -2.17,1.31 -0.27,0.21 -0.38,1.82 -0.84,2.4 -0.43,0.54 -0.88,0.39 -0.98,0.5 -0.23,0.25 0.24,1.65 -0.92,2.18 -2.59,1.18 -4.9,-1.7 -6,-1.61 -0.51,0.04 -1.82,1.52 -0.77,2.32 1.19,0.91 2.59,1.64 3.74,2.72 2.35,2.21 9.75,10.96 3.16,12.06 -3.97,0.66 -8.28,-0.83 -11.25,-3.43 -0.65,-0.12 -0.45,0.49 -0.27,0.81 0.61,1.02 4.57,3.16 5.8,3.63 3.14,1.21 10.34,2.71 10.71,-2.23 0.07,-0.94 -0.59,-3.67 1.09,-1.22 1.96,2.86 2.64,6.95 3.3,10.29 l 2.93,0.03 c -0.7,-6.29 -3.67,-11.7 -7.55,-16.55 -0.56,-0.7 -3.35,-3.43 -3.49,-3.78 -0.2,-0.49 0.27,-0.46 0.62,-0.35 0.93,0.27 4.71,3.43 5.7,4.27 4.92,4.18 9.47,9.36 12.23,15.24 0.15,0.31 0.29,1.11 0.33,1.14 0.22,0.2 2.39,-0.08 2.93,0.03 z m -57.09,-62.19 c -2.04,0.58 -3.86,2.46 -5.39,3.9 v 41.06 c 1.1,-1.07 2.4,-2.97 3.01,-4.39 0.86,-1.99 0.68,-4.01 1.61,-5.93 0.6,-1.23 4.07,-4.94 4.15,-5.42 0.06,-0.39 -0.65,-5.23 -0.82,-5.81 -0.28,-0.95 -2.57,-3.9 -2.57,-4.43 v -18.98 z"
     id="path10" />
  <path
     class="cls-9"
     d="m 271.41942,281.4177 c 0,-0.19 0,-0.38 0,-0.58 0.19,0.03 0.46,0.06 0.78,0.04 0.27,-0.02 1.03,-0.12 1.73,-0.61 0.31,-0.22 0.59,-0.54 0.9,-1.08 2.86,-6.41 4.94,-13.51 7.9,-19.83 0.39,-0.84 0.86,-2.66 1.8,-1.01 l 8.51,20.84 c 0.46,1.75 4.37,2.22 5.37,1.37 1.04,-0.89 0.51,-14.38 0.59,-16.78 0.06,-1.84 0.52,-3.85 0.28,-5.78 l 0.95,0.26 16.81,17.24 -0.34,-14.33 c -0.16,-0.93 -0.39,-1.83 -1.42,-2.08 -0.41,-0.1 -2.11,0.23 -1.48,-0.69 l 15.62,-0.13 c -0.03,0.22 0.05,0.75 0,0.81 -0.18,0.18 -1.26,-0.62 -0.68,1.35 l 4.99,9.15 c 0.18,0.13 0.49,-0.46 0.59,-0.62 0.98,-1.58 3.99,-6.74 4.4,-8.26 0.11,-0.39 0.23,-0.76 0.09,-1.17 -0.12,-0.35 -2.2,-1.38 0.09,-1.19 1.33,0.11 2.5,0.24 3.86,0.21 0.82,-0.02 1.88,-0.73 2.28,0.25 -2.17,0.24 -2.79,1.04 -3.99,2.61 -3.74,4.89 -6.38,9.55 -5.99,15.85 0.19,2.97 0.02,3.14 2.84,3.63 0.45,0.08 0.46,-0.16 0.4,0.53 h -9.42 c -0.07,-0.94 1.1,-0.39 1.77,-1.06 0.78,-0.79 0.77,-5.63 0.67,-6.89 -0.24,-2.74 -4.64,-10.1 -6.48,-12.37 -1.15,-1.42 -1.97,-2.19 -3.91,-2.04 -1.25,0.09 -1.54,0.55 -1.71,1.79 -0.84,6.04 0.4,14.06 -0.28,20.18 -0.03,0.3 -0.09,0.86 -0.42,0.93 -1.2,0.25 -15.31,-15.38 -17.36,-17.23 0.3,4.14 -0.06,8.72 0.26,12.8 0.22,2.83 0.28,2.91 2.84,3.36 0.45,0.08 0.46,-0.17 0.41,0.53 -5.42,0 -10.85,-0.01 -16.27,-0.02 0,-0.18 0,-0.37 0,-0.55 0.19,0 0.39,-0.02 0.58,-0.03 0,-0.12 0,-0.28 0.01,-0.45 0.01,-0.2 0.03,-0.35 0.03,-0.36 -0.04,-0.34 -2.15,-5.97 -2.36,-6.23 -2.32,-0.36 -4.87,-0.11 -7.26,-0.13 -0.23,1.52 -2.32,4.97 -2.19,6.28 0.02,0.21 0.18,0.65 0.54,0.82 0.14,0.06 0.25,0.06 0.77,0.07 0.33,0 0.59,0.01 0.76,0.02 0,0.2 -0.01,0.39 -0.02,0.59 -2.61,0 -5.22,0 -7.83,0 z m 14.41,-9.43 c -0.68,-2.27 -1.43,-5.01 -2.41,-7.15 -0.12,-0.27 -0.18,-0.63 -0.55,-0.66 l -2.7,7.81 h 5.65 z"
     id="path12" />
  <path
     class="cls-10"
     d="m 262.12942,244.9377 c 0.1,0.23 0.2,0.45 0.3,0.68 1.34,0.34 2.43,0.34 3.13,0.29 0.94,-0.07 1.6,-0.13 2.08,-0.65 0.57,-0.61 0.54,-1.46 0.52,-1.78 0.23,0 0.46,-0.01 0.69,-0.02 0.03,0.6 0.02,1.35 -0.12,2.2 -0.11,0.67 -0.29,1.26 -0.46,1.74 -3.84,0.02 -7.69,0.03 -11.53,0.05 v -0.62 c 0.24,0 0.66,-0.02 1.06,-0.26 0.67,-0.4 1.03,-1.23 0.95,-2.14 v -12.89 c 0.1,-0.9 -0.31,-1.74 -1.02,-2.1 -0.84,-0.43 -1.72,0 -1.88,0.08 -0.19,0.1 -0.61,0.35 -0.95,0.93 -0.67,1.13 -3.74,7.94 -7.78,17.32 -0.16,0 -0.32,0 -0.48,0 -2.71,-5.58 -4.8,-11.51 -7.3,-17.21 -0.9,-1.58 -4.32,-2.08 -4.67,0.13 0,4.84 -0.02,9.68 -0.02,14.53 0,0.23 0.03,0.69 0.33,1.1 0.07,0.09 0.14,0.17 0.21,0.24 0.57,0.01 1.13,0.03 1.7,0.04 0,0.26 0,0.53 -0.01,0.79 l -7.56,0.02 c 0,-0.26 0,-0.52 -0.01,-0.78 0.49,0 0.99,-0.02 1.48,-0.03 0.1,-0.11 0.25,-0.31 0.35,-0.6 0.08,-0.22 0.09,-0.42 0.09,-0.56 0.04,-2.06 0.28,-15.27 -0.29,-15.83 -0.13,-0.13 -0.29,-0.23 -0.29,-0.23 -0.42,-0.26 -0.9,-0.3 -1.3,-0.26 v -0.6 c 4.92,0 9.85,0 14.77,0 -0.02,0.29 -0.04,0.58 -0.06,0.87 -0.28,-0.07 -0.75,-0.14 -0.98,0.11 -0.26,0.27 -0.12,0.8 -0.02,1.09 0.35,1.13 2.15,5.77 4.65,12.05 l 4.94,-12.57 c 0,-0.15 -0.03,-0.27 -0.07,-0.35 -0.21,-0.43 -0.87,-0.63 -1.64,-0.51 v -0.69 c 5.74,0 11.48,0 17.22,0.01 -0.04,1.18 -0.08,2.37 -0.12,3.55 -0.32,0 -0.64,0 -0.96,-0.01 0.07,-0.44 0,-0.79 -0.06,-0.98 -0.07,-0.24 -0.14,-0.49 -0.37,-0.66 -0.15,-0.11 -0.31,-0.15 -0.41,-0.16 h -4.13 c 0,0 0,6.45 0,6.45 h 4.44 c 0.13,-0.06 0.32,-0.16 0.51,-0.34 0.13,-0.12 0.22,-0.25 0.28,-0.35 h 0.31 c 0,1.3 -0.02,2.6 -0.02,3.9 -0.23,0 -0.46,-0.02 -0.69,-0.02 0,-0.17 0,-0.85 -0.52,-1.39 -0.23,-0.24 -0.48,-0.37 -0.66,-0.44 h -3.65 v 6.85 z"
     id="path14" />
  <path
     class="cls-9"
     d="m 209.35942,285.4577 c -0.13,-0.82 0.2,-0.43 0.66,-0.54 2.03,-0.51 2.49,-0.33 3.58,-2.36 l 10.71,-29.14 c 0.93,-2.17 1.82,1.1 2.22,2.09 3.31,8.06 6.19,18.77 10.15,26.19 1.24,2.33 1.92,2.6 4.34,3.21 0.45,0.11 0.78,-0.27 0.66,0.54 h -8.89 c -0.09,-0.54 0.47,-0.71 0.55,-1.23 0.23,-1.62 -3.61,-8.88 -4.04,-11.03 -1.23,-0.08 -9.46,-0.36 -9.74,0.04 -0.51,2.93 -3.12,7.11 -3.21,9.95 -0.01,0.39 -0.02,0.77 0.26,1.08 l 2.17,1.19 h -9.42 z m 19.12,-14 -4.17,-12.11 -3.9,12.11 h 8.08 z"
     id="path16" />
  <path
     class="cls-9"
     d="m 267.24942,268.4877 c 0.57,0.17 2.99,0.97 4.28,3.41 1.25,2.37 1.02,5.51 -0.67,7.34 -0.96,1.04 -2.07,1.31 -3.97,1.78 -2.25,0.55 -3.54,0.33 -9.56,0.38 -0.84,0 -1.52,0.02 -1.93,0.02 0,-0.19 0,-0.38 0,-0.57 0.56,0 1.01,-0.1 1.32,-0.19 0.34,-0.1 0.54,-0.15 0.73,-0.32 0.46,-0.38 0.49,-1.01 0.49,-1.23 0,-5.92 0,-11.84 0,-17.77 0.07,-0.87 -0.17,-1.63 -0.6,-1.98 -0.2,-0.16 -0.43,-0.25 -0.43,-0.25 -0.24,-0.1 -0.45,-0.12 -0.91,-0.12 -0.28,0 -0.63,0 -1.04,0.02 v -0.63 c 2.01,0.03 3.63,0.01 4.71,0 3,-0.04 4.64,-0.13 6.81,0.49 1.12,0.32 1.7,0.49 2.23,1.01 1.48,1.43 1.63,4.21 0.64,6.02 -0.29,0.53 -2.31,2.32 -2.11,2.59 z m -5.47,-8.72 c 0.03,2.68 0.06,5.36 0.09,8.05 0.47,0.05 0.88,0.08 1.23,0.09 1.33,0.07 1.65,0 1.91,-0.13 0.41,-0.2 0.65,-0.5 0.77,-0.66 0.99,-1.26 1.4,-5.14 -0.98,-6.74 -1.09,-0.74 -2.33,-0.7 -3.01,-0.61 z m 0.08,9.8 v 9.29 c 0.12,0.18 0.32,0.45 0.66,0.69 0.46,0.33 0.91,0.41 1.16,0.46 0.27,0.05 2.29,0.45 3.65,-0.66 1.62,-1.31 1.73,-4.07 0.6,-6.54 -1.15,-2.51 -3.33,-3.61 -6.06,-3.23 z"
     id="path18" />
  <path
     class="cls-9"
     d="m 194.30942,226.0977 c -0.02,0.21 -0.04,0.42 -0.06,0.63 -0.15,0 -0.37,0 -0.63,0.04 -0.51,0.06 -0.87,0.1 -1.13,0.32 -0.16,0.14 -0.27,0.39 -0.34,0.9 -0.37,2.68 -0.28,9.83 0,12.61 0.27,2.62 1.51,4.41 3.38,5.19 1.66,0.69 3.76,0.28 4.8,-0.32 0.61,-0.35 1.09,-0.83 1.09,-0.83 0,0 0.49,-0.49 0.85,-1.12 0.78,-1.37 0.62,-3.49 0.62,-6.29 0,-0.91 0.02,0.28 0.04,-2.58 0.02,-2.47 0.02,-4.48 0.01,-5.86 0.02,-0.33 0.03,-1.33 -0.63,-1.8 -0.1,-0.07 -0.19,-0.11 -0.28,-0.15 -0.31,-0.14 -0.9,-0.33 -1.79,-0.2 v -0.54 c 2.5,0.01 5,0.02 7.49,0.03 v 0.53 c -0.35,-0.04 -1,-0.05 -1.5,0.35 -0.38,0.31 -0.53,0.74 -0.6,1.02 -0.49,1.99 -0.32,8.83 -0.31,9.18 0.06,2.55 0.15,6.17 -2.14,8.44 -1.55,1.54 -3.57,1.89 -4.82,2.04 -0.9,0.1 -4.32,0.67 -7.04,-1.44 -1.37,-1.06 -2.11,-2.44 -2.34,-2.89 -0.51,-0.98 -0.76,-1.89 -0.89,-2.53 0,-4.29 -0.01,-8.58 -0.02,-12.87 0.03,-0.1 0.06,-0.3 -0.03,-0.5 -0.1,-0.23 -0.3,-0.34 -0.42,-0.4 -0.67,-0.36 -2.08,-0.42 -2.26,-0.43 v -0.53 h 8.91 z"
     id="path20" />
  <path
     class="cls-5"
     d="m 224.22942,242.2777 v -10.74 c 0,-0.18 -0.02,-0.44 -0.06,-0.75 -0.06,-0.4 -0.11,-0.79 -0.26,-1.02 -0.43,-0.71 -1.94,-0.49 -2.07,-0.47 0.01,-0.24 0.02,-0.48 0.03,-0.72 1.04,0 2.09,0 3.15,0 1.09,0 2.17,0 3.24,-0.02 0,0.25 -0.01,0.49 -0.02,0.74 -0.06,-0.01 -0.85,-0.16 -1.44,0.41 -0.51,0.5 -0.47,1.16 -0.46,1.25 l -0.3,16.8 h -0.73 c -3.17,-2.99 -6.4,-6.21 -9.64,-9.69 -1.33,-1.43 -2.62,-2.86 -3.87,-4.27 0.05,3.98 0.1,7.96 0.15,11.94 0.02,0.1 0.08,0.33 0.28,0.54 0.15,0.16 0.32,0.24 0.42,0.28 0.27,0 0.54,0.01 0.82,0.02 0.34,0 0.67,0.02 1.01,0.03 0,0.3 0,0.59 -0.01,0.89 -1.17,-0.06 -2.38,-0.09 -3.63,-0.11 -1.06,0 -2.1,0 -3.1,0.02 v -0.8 c 0.38,0.02 0.7,0 0.92,-0.03 0.45,-0.06 0.73,-0.1 0.94,-0.31 0,0 0.2,-0.19 0.26,-0.54 0.17,-0.95 0.08,-15.67 0.07,-17.45 h 0.77 c 4.51,4.67 9.02,9.33 13.53,14 z"
     id="path22" />
  <path
     class="cls-11"
     d="m 276.37942,246.5677 c 0.25,0.15 0.47,0.18 0.74,0.22 0.24,0.03 0.6,0.06 1.05,-0.01 0,0.21 0,0.42 0,0.63 h -7.4 v -0.52 c 0.11,0 1.17,0.07 1.76,-0.71 0.21,-0.28 0.3,-0.58 0.33,-0.78 0.07,-7.29 0.07,-12.64 0.05,-14.2 0,-0.31 -0.02,-0.96 -0.47,-1.46 -0.58,-0.66 -1.58,-0.68 -2.11,-0.65 v -0.48 c 1.25,0 2.49,0 3.74,0 1.7,0 3.41,0 5.11,0 0.55,0.02 1.01,0.12 1.34,0.21 0.28,0.08 0.65,0.18 1.07,0.42 0.21,0.12 0.41,0.25 0.64,0.41 0,0 0.31,0.21 0.54,0.38 0.32,0.24 1.02,1.28 1.06,3.15 0.02,0.84 0.09,4.03 -2.24,5.66 -0.66,0.46 -1.32,0.66 -1.76,0.76 0.12,0.15 0.25,0.3 0.37,0.45 0.13,0.18 2.91,4.09 4.58,5.51 0.51,0.44 0.95,0.67 1.34,0.81 0.75,0.27 1.44,0.25 1.85,0.21 v 0.78 c -1.42,0 -2.83,0 -4.25,0 -0.32,-0.11 -0.78,-0.29 -1.28,-0.58 -0.52,-0.31 -1.15,-0.77 -2.27,-2.11 -0.84,-1 -1.03,-1.39 -1.95,-2.6 -0.71,-0.93 -1.32,-1.66 -1.7,-2.1 h -0.66 c 0,2.02 0,4.05 -0.01,6.08 0.08,0.14 0.25,0.37 0.53,0.54 z m -0.07,-16.54 c -0.18,0.06 -0.29,0.17 -0.29,0.17 -0.14,0.16 -0.15,0.37 -0.15,0.46 -0.01,0.37 -0.06,3.36 -0.1,7.47 h 3.8 c 0.21,-0.22 0.52,-0.58 0.79,-1.08 0.79,-1.43 0.88,-3.27 0.17,-4.8 -0.15,-0.33 -0.41,-0.88 -0.97,-1.39 -1.34,-1.21 -2.99,-0.91 -3.25,-0.83 z"
     id="path24" />
  <path
     class="cls-1"
     d="m 247.32942,258.2577 v 0.81 c -0.21,0.22 -2.31,-0.73 -2.68,1.5 -0.02,2.7 -0.04,5.4 -0.06,8.1 0,0.42 -0.02,2.96 0.03,8.05 0,0.71 0.04,1.98 0.88,2.64 0.4,0.31 0.86,0.4 2.67,0.41 0.81,0 1.92,0 3.24,-0.08 0.26,-0.14 0.58,-0.37 0.88,-0.71 0.82,-0.94 0.83,-2.07 0.82,-2.43 0.22,0 0.45,0.01 0.67,0.02 l -0.86,4.85 c -4.89,-0.01 -9.78,-0.02 -14.66,-0.03 v -0.52 c 0.29,0.04 0.7,0.06 1.1,0 0.27,-0.04 0.75,-0.15 1.1,-0.52 0,0 0.31,-0.33 0.41,-0.88 0.16,-0.9 0.06,-8.65 -0.22,-19.17 -0.02,-0.14 -0.08,-0.51 -0.4,-0.85 -0.28,-0.3 -0.59,-0.4 -0.73,-0.44 -0.45,0 -0.91,0 -1.36,-0.01 v -0.73 c 1.56,0.05 3.15,0.07 4.79,0.07 1.49,0 2.94,-0.03 4.36,-0.07 z"
     id="path26" />
  <path
     class="cls-5"
     d="m 297.13942,228.9177 v 3.77 c -0.2,0 -0.4,0 -0.6,-0.01 0,-0.3 -0.08,-1.33 -0.87,-2.15 -0.95,-0.98 -2.38,-1.11 -3.42,-0.74 -0.31,0.11 -1.01,0.35 -1.41,1.04 -0.71,1.22 0.22,2.74 0.35,2.96 0.42,0.69 0.94,1.06 1.43,1.4 2.17,1.53 3.25,2.3 3.73,2.74 1.83,1.7 2.76,5.3 1.27,7.58 -1.15,1.76 -3.34,2.1 -4.14,2.23 -2.65,0.42 -4.7,-0.74 -5.31,-1.12 0,-1.45 0,-2.9 0,-4.35 h 0.53 c 0.03,0.16 0.09,0.41 0.18,0.7 0.27,0.96 0.52,1.76 1.16,2.41 0.23,0.24 0.53,0.45 0.93,0.63 1.87,0.84 3.76,0.35 4.5,-0.95 0.65,-1.14 0.07,-2.56 -0.09,-2.93 -0.64,-1.53 -1.66,-1.7 -4.39,-4.13 -1.88,-1.68 -2.25,-2.36 -2.42,-2.72 -0.26,-0.55 -0.96,-2.02 -0.41,-3.72 0.6,-1.85 2.24,-2.63 2.62,-2.82 1.22,-0.58 2.33,-0.52 3.41,-0.46 1.27,0.07 2.29,0.37 2.96,0.62 z"
     id="path28" />
  <path
     class="cls-9"
     d="m 307.01942,229.1377 c -0.41,0 -1.07,0.05 -1.53,0.5 -0.43,0.42 -0.5,1.01 -0.52,1.32 -0.1,1.33 -0.15,6.95 -0.08,14.6 0.1,0.17 0.22,0.33 0.38,0.48 0.83,0.77 2.04,0.6 2.28,0.55 v 0.81 h -7.82 c 0,-0.28 0,-0.55 0,-0.83 0.26,0.02 0.78,0.05 1.26,-0.07 0.18,-0.04 0.33,-0.1 0.45,-0.23 0.11,-0.12 0.16,-0.26 0.18,-0.34 0,-5.33 -0.02,-10.67 -0.03,-16 0.01,-0.06 0.02,-0.15 0,-0.25 -0.05,-0.22 -0.22,-0.34 -0.32,-0.41 -0.47,-0.34 -1.5,-0.22 -1.56,-0.21 v -0.54 c 2.43,0 4.86,-0.01 7.29,-0.02 0,0.21 0,0.43 0,0.64 z"
     id="path30" />
  <path
     class="cls-5"
     d="m 186.29942,272.2677 v -0.49 c 0.14,0.02 0.8,0.1 1.35,-0.35 0.25,-0.2 0.38,-0.44 0.45,-0.59 1.81,-4.48 3.61,-8.97 5.42,-13.45 h 0.56 c 2.13,4.73 4.27,9.46 6.4,14.2 0.09,0.07 0.21,0.14 0.34,0.19 0.42,0.19 0.81,0.18 1.04,0.16 v 0.29 c -1.72,0 -3.44,0.02 -5.16,0.03 0,-0.1 0.01,-0.2 0.02,-0.3 0.13,0.03 0.31,0.05 0.43,-0.04 0.26,-0.22 0.02,-0.9 -0.42,-2.02 -0.25,-0.64 -0.59,-1.49 -1.03,-2.49 -1.53,0 -3.07,0 -4.6,0.01 -0.3,0.73 -0.55,1.39 -0.77,1.96 -0.55,1.42 -0.7,1.86 -0.48,2.16 0.09,0.11 0.35,0.37 1.24,0.25 0,0.17 0,0.33 0.01,0.5 -1.6,0 -3.2,0 -4.8,0 z m 9.06,-5.93 c -0.49,-1.42 -0.91,-2.92 -1.48,-4.31 -0.11,-0.26 -0.03,-0.62 -0.4,-0.54 l -1.62,4.84 h 3.5 z"
     id="path32" />
  <path
     class="cls-1"
     d="m 211.77942,257.7277 c -0.1,0.52 0.14,2.77 0,2.96 -0.51,0.66 -0.62,-1.13 -1.01,-1.35 -0.96,-0.53 -2.99,-0.15 -4.11,-0.27 0.18,1.66 -0.33,12.02 0.27,12.65 0.22,0.23 1.91,-0.5 1.61,0.54 h -5.92 c 0.06,-0.58 1,-0.45 1.22,-0.79 0.07,-0.1 0.39,-2.16 0.39,-2.3 v -10.1 h -3.9 c -0.53,0 -1.01,1.16 -1.48,1.35 -0.07,-0.32 0.13,-2.69 0.27,-2.69 z"
     id="path34" />
  <path
     class="cls-13"
     d="m 297.40942,215.9877 c -0.55,-0.11 -2.71,0.17 -2.93,-0.03 -0.04,-0.04 -0.18,-0.83 -0.33,-1.14 -2.76,-5.88 -7.3,-11.06 -12.23,-15.24 -0.99,-0.84 -4.76,-4 -5.7,-4.27 -0.35,-0.1 -0.83,-0.14 -0.62,0.35 0.14,0.35 2.94,3.09 3.49,3.78 3.88,4.85 6.84,10.26 7.55,16.55 l -2.93,-0.03 c -0.66,-3.35 -1.34,-7.44 -3.3,-10.29 -1.68,-2.44 -1.01,0.28 -1.09,1.22 -0.37,4.94 -7.58,3.44 -10.71,2.23 -1.22,-0.47 -5.19,-2.6 -5.8,-3.63 -0.19,-0.31 -0.38,-0.92 0.27,-0.81 2.97,2.61 7.28,4.1 11.25,3.43 6.59,-1.1 -0.81,-9.85 -3.16,-12.06 -1.15,-1.08 -2.55,-1.81 -3.74,-2.72 -1.05,-0.8 0.26,-2.28 0.77,-2.32 1.1,-0.09 3.41,2.79 6,1.61 1.15,-0.53 0.69,-1.93 0.92,-2.18 0.1,-0.11 0.55,0.04 0.98,-0.5 0.46,-0.58 0.58,-2.19 0.84,-2.4 0.63,-0.49 2.31,1.31 2.17,-1.31 -0.14,-2.62 -1.37,-4.68 0.53,-7.14 -1.18,-0.29 -5.02,-1.34 -5.94,-0.69 -0.22,0.16 -1,3.56 -2.4,4.87 -3.44,3.22 -15.26,3.25 -16.99,8.32 -0.9,2.64 0.74,4.04 1.36,6.34 -0.57,0.64 -3.28,-3.77 -3.63,-3.76 -0.1,0 -0.4,0.44 -0.48,0.61 l 2.77,21.19 h -2.96 c -0.89,-5.23 -1.13,-11.07 -2.23,-16.21 -0.64,-3.02 -2.9,-2.06 -2.91,0.47 l 2.18,15.75 h -2.96 c 0,0 -2.02,-12.65 -2.02,-12.65 l -5.38,12.38 c -0.34,0.44 -3.09,0.34 -3.1,0.13 0.85,-2.17 2.06,-4.24 3.01,-6.41 1.34,-3.05 3.38,-9.97 5.63,-11.87 1.84,-1.55 3.45,-1.9 4.94,-4.21 0.96,-1.5 0.37,-1.32 0.42,-2.54 0.03,-0.63 0.38,-1.18 0.27,-1.86 -0.07,-0.41 -0.52,-0.73 -0.53,-1.1 -0.02,-0.5 0.68,-1.03 0.51,-1.58 -0.12,-0.4 -0.89,-0.46 -1.03,-0.89 -0.2,-0.63 0.57,-1.51 0.12,-2.25 -0.28,-0.45 -1.57,-0.65 -1.7,-0.86 -0.14,-0.22 -0.84,-4.67 -0.86,-5.21 -0.08,-2.09 1.17,-4.01 1.33,-5.95 0.29,-3.58 -4.34,-13.23 -4.98,-17.59 -0.08,-0.52 -0.28,-0.75 0.15,-1.22 0.21,-0.23 3.03,-1.54 3.59,-1.79 16.63,-7.44 37.91,-4.98 51.61,7.18 v 58.29 z m -30.39,-64.11 c -0.36,-0.57 0.63,-3.03 -1.23,-2.92 -1.32,0.08 -1.68,1.28 -2.49,1.85 -1.59,1.13 -4.41,1.05 -3.86,4.08 1.09,-1.18 1.83,-2.48 3.7,-1.68 2.74,1.18 -1.69,1.74 -2.62,2.09 -2.49,0.93 -4.96,3.07 -6.12,5.46 -1.16,2.39 -2,6.84 -0.83,9.28 0.52,1.08 2.15,1.66 2.35,3.04 0.25,1.72 -1.13,2.78 -1.33,4.42 2.98,-0.86 5.67,-1.96 8.79,-2.38 6.35,-0.86 13.64,-0.4 19.48,2.38 0.27,-0.36 -2.72,-7.5 -3.18,-8.53 -1.67,-3.7 -5.57,-11.63 -9.19,-13.43 -0.5,-0.25 -2.11,-0.57 -2.17,-0.66 -0.09,-0.13 0.79,-1.59 -0.28,-2.55 -0.29,-0.26 -0.95,-0.33 -1.03,-0.45 z m -0.1,25.69 c -3.42,0.12 -11.41,1.07 -13.55,3.95 -0.5,0.67 -0.65,1.44 0.42,1.25 1.3,-0.24 2.75,-0.97 4.17,-0.99 3.04,-0.04 11.26,2.33 12.19,-2.33 0.48,-2.43 -1.57,-1.94 -3.23,-1.88 z m -6.13,6.66 c -0.35,-0.3 -4.49,-0.33 -5.22,-0.24 -3.53,0.42 -5.55,2.64 -4.99,6.28 0.48,3.14 1.8,-0.5 2.29,-1.18 2.04,-2.85 5.03,-2.85 7.58,-4.26 0.23,-0.13 0.76,-0.24 0.34,-0.6 z"
     id="path84" />
  <path
     class="cls-13"
     d="m 240.31942,153.7977 v 18.98 c 0,0.54 2.29,3.48 2.57,4.43 0.17,0.58 0.88,5.42 0.82,5.81 -0.07,0.48 -3.55,4.19 -4.15,5.42 -0.93,1.92 -0.75,3.94 -1.61,5.93 -0.62,1.42 -1.91,3.32 -3.01,4.39 v -41.06 c 1.52,-1.44 3.34,-3.33 5.39,-3.9 z"
     id="path86" />
  <path
     class="cls-7"
     d="m 267.01942,151.8777 c 0.07,0.11 0.74,0.19 1.03,0.45 1.07,0.96 0.18,2.42 0.28,2.55 0.07,0.09 1.67,0.41 2.17,0.66 3.62,1.81 7.51,9.73 9.19,13.43 0.46,1.03 3.46,8.16 3.18,8.53 -5.84,-2.79 -13.13,-3.25 -19.48,-2.38 -3.12,0.42 -5.81,1.53 -8.79,2.38 0.2,-1.64 1.59,-2.7 1.33,-4.42 -0.2,-1.38 -1.84,-1.96 -2.35,-3.04 -1.17,-2.45 -0.33,-6.9 0.83,-9.28 1.16,-2.38 3.63,-4.53 6.12,-5.46 0.93,-0.35 5.36,-0.91 2.62,-2.09 -1.87,-0.8 -2.61,0.5 -3.7,1.68 -0.54,-3.03 2.27,-2.95 3.86,-4.08 0.81,-0.57 1.17,-1.77 2.49,-1.85 1.86,-0.11 0.87,2.36 1.23,2.92 z m 5.34,7.85 c -0.78,-0.15 -0.43,0.22 -0.61,0.59 -1.94,4.02 -4.22,3.66 -7.84,5.37 -2.81,1.33 -4.99,3.16 -5.82,6.29 0.77,-0.29 1.24,-1.06 1.95,-1.55 2.87,-1.96 5.71,-2 8.54,-3.3 3.01,-1.39 3.52,-4.39 3.77,-7.4 z"
     id="path88" />
  <path
     class="cls-8"
     d="m 266.91942,177.5677 c 1.66,-0.06 3.71,-0.55 3.23,1.88 -0.93,4.66 -9.15,2.29 -12.19,2.33 -1.42,0.02 -2.87,0.75 -4.17,0.99 -1.07,0.19 -0.92,-0.58 -0.42,-1.25 2.14,-2.88 10.13,-3.82 13.55,-3.95 z"
     id="path90" />
  <path
     class="cls-8"
     d="m 260.78942,184.2277 c 0.42,0.36 -0.11,0.47 -0.34,0.6 -2.55,1.41 -5.54,1.41 -7.58,4.26 -0.48,0.67 -1.8,4.31 -2.29,1.18 -0.56,-3.64 1.47,-5.87 4.99,-6.28 0.74,-0.09 4.88,-0.06 5.22,0.24 z"
     id="path92" />
  <path
     class="cls-12"
     d="m 272.35942,159.7277 c -0.25,3.01 -0.76,6.01 -3.77,7.4 -2.84,1.31 -5.67,1.34 -8.54,3.3 -0.71,0.49 -1.18,1.26 -1.95,1.55 0.83,-3.13 3.01,-4.97 5.82,-6.29 3.62,-1.71 5.89,-1.35 7.84,-5.37 0.18,-0.37 -0.17,-0.74 0.61,-0.59 z"
     id="path94" />
  <path
     class="cls-1"
     d="m 325.21942,228.6077 c -0.13,0.68 0.18,3.59 0,3.83 -0.64,0.85 -0.78,-1.47 -1.26,-1.74 -1.2,-0.69 -3.76,-0.19 -5.16,-0.35 0.23,2.15 -0.41,15.54 0.34,16.36 0.28,0.3 2.4,-0.64 2.02,0.7 h -7.43 c 0.07,-0.76 1.25,-0.59 1.54,-1.03 0.08,-0.13 0.49,-2.79 0.49,-2.98 v -13.06 h -4.9 c -0.67,0 -1.27,1.5 -1.85,1.74 -0.09,-0.41 0.16,-3.48 0.33,-3.48 h 15.87 z"
     id="path96" />
  <path
     class="cls-9"
     d="m 345.58942,229.0577 c -0.37,0 -0.92,0.06 -1.49,0.36 -0.92,0.48 -1.34,1.33 -1.51,1.67 -0.72,1.41 -2.34,4.12 -4.54,7.78 -0.01,2.39 -0.03,4.77 -0.04,7.16 0.19,0.18 0.54,0.47 1.06,0.66 0.6,0.22 1.13,0.2 1.41,0.17 0,0.22 0.02,0.44 0.02,0.65 -2.59,0 -5.17,-0.01 -7.76,-0.02 l -0.04,-0.84 c 0.66,0 1.32,-0.01 1.98,-0.02 -0.02,-2.29 -0.04,-4.59 -0.06,-6.88 -0.84,-1.83 -1.94,-3.89 -3.36,-6.04 -1.09,-1.65 -2.2,-3.1 -3.25,-4.35 -0.42,0 -0.84,0 -1.26,-0.01 v -0.78 l 6.98,-0.07 v 0.66 c -0.19,-0.03 -0.48,-0.04 -0.63,0.13 -0.21,0.25 0,0.74 0.11,0.97 0.4,0.9 1.77,3.67 3.64,7.36 1.32,-2.38 2.64,-4.76 3.95,-7.14 0.16,-0.62 -0.02,-1.17 -0.37,-1.36 -0.07,-0.04 -0.22,-0.09 -0.44,-0.07 0,-0.18 0,-0.37 0,-0.55 1.87,0 3.75,0 5.62,0 -0.01,0.18 -0.02,0.35 -0.03,0.53 z"
     id="path98" />
  <text
     xml:space="preserve"
     style="font-style:normal;font-variant:normal;font-weight:normal;font-stretch:normal;font-size:178.667px;font-family:'DejaVu Sans';-inkscape-font-specification:'DejaVu Sans, Normal';font-variant-ligatures:normal;font-variant-caps:normal;font-variant-numeric:normal;font-variant-east-asian:normal;white-space:pre;inline-size:1890.82;display:inline;fill:#1a1a1a;fill-opacity:1"
     x="469.13486"
     y="68.888283"
     id="text358"
     transform="translate(-55.397709,123.7761)"><tspan
       x="469.13486"
       y="68.888283"
       id="tspan7663">Center of Excellence</tspan></text>
  <text
     xml:space="preserve"
     style="font-style:normal;font-variant:normal;font-weight:normal;font-stretch:normal;font-size:117.333px;font-family:'DejaVu Sans';-inkscape-font-specification:'DejaVu Sans, Normal';font-variant-ligatures:normal;font-variant-caps:normal;font-variant-numeric:normal;font-variant-east-asian:normal;fill:#1a1a1a;fill-opacity:1"
     x="416.64117"
     y="329.78244"
     id="text889"><tspan
       sodipodi:role="line"
       id="tspan887"
       x="416.64117"
       y="329.78244">in Weather &amp; Climate Analytics</tspan></text>
  <text
     xml:space="preserve"
     style="font-style:normal;font-variant:normal;font-weight:normal;font-stretch:normal;font-size:112px;font-family:'DejaVu Sans';-inkscape-font-specification:'DejaVu Sans';fill:#1a1a1a;fill-opacity:1"
     x="561.73804"
     y="491.98392"
     id="text893"><tspan
       sodipodi:role="line"
       id="tspan891"
       x="561.73804"
       y="491.98392"
       style="font-style:normal;font-variant:normal;font-weight:200;font-stretch:normal;font-size:112px;font-family:'DejaVu Sans';-inkscape-font-specification:'DejaVu Sans, Ultra-Light';font-variant-ligatures:normal;font-variant-caps:normal;font-variant-numeric:normal;font-variant-east-asian:normal;fill:#1a1a1a">at the University at Albany</tspan></text>
  <path
     style="fill:#46166b;fill-opacity:1;stroke:#46166b;stroke-width:3.6835;stroke-dasharray:none;stroke-opacity:1"
     d="M 424.12967,378.40369 H 2242.2235"
     id="path1637" />
  <path
     d="M 421.97673,4.3136673 V 502.17272"
     id="path1088" />
</svg>
